<?xml version="1.0" encoding="UTF-8"?>
<svg width="168.94mm" height="11.786mm" version="1.1" viewBox="0 0 168.94 11.786" xmlns="http://www.w3.org/2000/svg" xmlns:cc="http://creativecommons.org/ns#" xmlns:dc="http://purl.org/dc/elements/1.1/" xmlns:rdf="http://www.w3.org/1999/02/22-rdf-syntax-ns#">
	<metadata>
		<rdf:RDF>
			<cc:Work rdf:about="">
				<dc:format>image/svg+xml</dc:format>
				<dc:type rdf:resource="http://purl.org/dc/dcmitype/StillImage"/>
				<dc:title/>
			</cc:Work>
		</rdf:RDF>
	</metadata>
	<g transform="translate(-15.484 -65.925)">
		<path d="m15.589 75.847s55.49-18.461 95.847-4.1307c36.264 12.877 72.873-0.24188 72.873-0.24188" fill="none" stroke="#fff" stroke-width=".665"/>
		<path d="m145.93 69.33c-0.59041-0.75996-1.3669-1.3235-2.1612-1.8506-0.82836-0.49243-1.7356-0.8669-2.7019-0.96728-0.16629-0.01727-0.33409-0.0136-0.50113-0.02041-0.46763 0.02219-0.92056 0.14012-1.3271 0.3771-1.257 0.73279-1.5833 0.80695-2.3308 1.6607-0.44204 0.51364-0.71831 1.1201-0.87955 1.7725-0.0443 0.33685-0.13413 0.69752-0.0489 1.0369 0.0583 0.23233 0.14558 0.35147 0.26355 0.56045 0.51164 0.7522 1.2156 1.1087 2.0362 1.4374 1.0743 0.37262 2.2203 0.46625 3.3497 0.49024 0.98767-0.01282 1.9449-0.21842 2.8834-0.50874 0.72001-0.22352 1.3952-0.55942 2.0779-0.87364 0.64692-0.26884 1.2753-0.57739 1.9067-0.88003 0.94209-0.44763 1.869-0.92586 2.8062-1.3839 0.82668-0.42696 1.674-0.80842 2.533-1.1649 0.59923-0.25552 1.2125-0.47106 1.849-0.61076 0.32278-0.04744 0.66897-0.14509 0.9917-0.0433 0.0643 0.02027 0.12434 0.05202 0.18652 0.07803 0.0598 0.05149 0.12579 0.0966 0.17947 0.15447 0.39575 0.42669 0.65715 0.99226 0.87059 1.5255 0.1547 0.49038 0.2991 1.0122 0.23073 1.5319-0.012 0.09103-0.0375 0.17976-0.0562 0.26964-0.14075 0.53539-0.45381 0.98951-0.80805 1.4049-0.16948 0.1888-0.34797 0.37314-0.54998 0.52788-0.0619 0.04745-0.26076 0.17124-0.19323 0.13216 1.3914-0.80525 1.6322-0.87943 0.97038-0.63097-0.58556 0.17969-1.0672 0.14074-1.6465-0.02761-0.60608-0.21686-1.1461-0.57302-1.7216-0.85524-0.52659-0.2342-1.0631-0.44404-1.6126-0.61777-0.23446-0.07415-0.47415-0.1288-0.71883-0.15327-0.0696-0.0063-0.1395-0.0075-0.20933-0.0087l-1.3767 1.0001c0.0684-0.0011 0.13687-0.0025 0.20532-0.0016 0.24247 0.0064 0.48188 0.04311 0.71573 0.10885 0.55184 0.15487 1.0917 0.34858 1.6144 0.58461 0.5857 0.27741 1.127 0.63967 1.731 0.87872 0.59242 0.19402 1.0865 0.26946 1.7014 0.11371 1.0181-0.27763 1.9415-0.90852 2.6243-1.7038 0.34809-0.44092 0.65239-0.92317 0.76964-1.4807 0.10384-0.68398 3e-3 -1.2288-0.23013-1.8774-0.26511-0.6483-0.59412-1.2995-1.0924-1.8003-0.14556-0.07406-0.24288-0.13543-0.40382-0.17132-0.27718-0.06182-0.56929 0.02143-0.84372 0.05414-0.65056 0.13077-1.2788 0.33942-1.8882 0.60229-0.86695 0.35841-1.7252 0.73535-2.5568 1.1708-0.92983 0.45603-1.8526 0.92624-2.7873 1.3717-0.63104 0.2943-1.251 0.61258-1.8969 0.87478-0.68575 0.31265-1.357 0.66155-2.0751 0.89727-0.93497 0.30179-1.885 0.54053-2.874 0.56663-1.1124-0.0061-2.2408-0.09453-3.3014-0.45241-0.78761-0.3048-1.466-0.63236-1.9529-1.3549-0.10668-0.20075-0.17409-0.2897-0.21975-0.50891-0.0674-0.32337 0.0169-0.66328 0.0699-0.9808 0.17021-0.62808 0.45319-1.204 0.89288-1.691 0.0889-0.09496 0.17277-0.19486 0.26664-0.28489 0.10055-0.09643 0.44567-0.32423 0.31583-0.27371-0.36754 0.143-0.69508 0.37286-1.0439 0.55696-0.1305 0.06888 0.25445-0.15074 0.38901-0.21131 0.41028-0.18469 0.45461-0.16232 0.89698-0.23525 0.1641 4.17e-4 0.32861-0.0103 0.49231 0.0013 0.95313 0.06715 1.8571 0.42091 2.6722 0.90311 0.77774 0.50547 1.543 1.0526 2.0604 1.8402l1.4569-0.85918z" fill="#fff" fill-rule="evenodd"/>
		<path d="m56.482 73.603c-0.22637-0.36861-0.57746-0.66961-0.96731-0.92708-0.37357-0.23339-0.80319-0.38863-1.2543-0.49147-0.3882-0.0807-0.78885-0.08501-1.1854-0.05526-1.1402 0.17532-2.1094 0.75331-2.6778 1.5373-0.26099 0.40679-0.33556 0.85708-0.38441 1.3072-0.02487 0.30559-0.02747 0.61201-0.02939 0.91815-0.02624 0.26284 0.05511 0.49277 0.20306 0.72339 0.17291 0.25294 0.46863 0.357 0.80038 0.41588 0.30967 0.04093 0.62433 0.0362 0.93696 0.0357 0.32886-0.0019 0.6577-0.0038 0.98657-0.0034 0.22595 0.0092 0.44229-0.03226 0.65875-0.07754 0.76976-0.15399 0.14034-0.01983 1.892-0.87676 0.12094-0.05916 0.23379-0.15315 0.31342-0.24664 0.01776-0.0265 0.03361-0.0539 0.05329-0.07949 0.07409-0.09634 0.04737-0.03602 0.10924-0.13784 0.04105-0.06755 0.05774-0.13626 0.10561-0.20094 0.08428-0.17821 0.19428-0.34832 0.26846-0.52945 0.07473-0.23548 0.15485-0.46978 0.22683-0.70584 0.04685-0.17024 0.0691-0.34275 0.11062-0.51365 0.03642-0.20476 0.04971-0.41186 0.05969-0.61844 0.0026-0.12997 0.0018-0.06348 0.0022-0.19947l-1.7697 0.73006c-0.0041 0.1345-0.0017 0.06894-0.0068 0.19669-0.0096 0.19991-0.02341 0.40057-0.07429 0.59686-0.03927 0.16763-0.05577 0.33838-0.10928 0.50387-0.07086 0.23176-0.14398 0.46386-0.23936 0.68983-0.09093 0.17408-0.17965 0.3493-0.28339 0.51864-0.06693 0.13914-0.16583 0.26561-0.28654 0.37842-0.07566 0.05514-0.15504 0.10644-0.23454 0.15791-0.03021 0.01956-0.12534 0.07299-0.09158 0.05773 1.5094-0.68238 2.125-1.0414 1.5376-0.70185-0.21452 0.03666-0.41783 0.10747-0.63976 0.11158-0.32958 0.0019-0.65915 0.0026-0.98873 0.0045-0.30478 0.0016-0.61033 0.0061-0.91442-0.01361-0.28093-0.02953-0.55259-0.07437-0.7055-0.28935-0.13237-0.21152-0.17301-0.4223-0.15326-0.65944-0.0068-0.29895-0.0089-0.59833 0.01938-0.8967 0.04912-0.43127 0.13911-0.86053 0.42071-1.237 0.14352-0.16896 0.28884-0.33373 0.47952-0.47089 0.05378-0.03869 0.23487-0.13349 0.17148-0.10603-1.863 0.80702-2.0446 0.8558-1.3454 0.63674 0.37894-0.0488 0.76112-0.04841 1.1394 0.0093 0.4372 0.07769 0.85393 0.21351 1.2171 0.42972 0.36921 0.23294 0.71519 0.51054 0.89668 0.86715l1.7322-0.78835z" fill="#fff" fill-rule="evenodd"/>
	</g>
</svg>
