<?xml version="1.0" encoding="UTF-8"?>
<svg width="123.14mm" height="8.5108mm" version="1.1" viewBox="0 0 123.14 8.5108" xmlns="http://www.w3.org/2000/svg" xmlns:cc="http://creativecommons.org/ns#" xmlns:dc="http://purl.org/dc/elements/1.1/" xmlns:rdf="http://www.w3.org/1999/02/22-rdf-syntax-ns#">
	<metadata>
		<rdf:RDF>
			<cc:Work rdf:about="">
				<dc:format>image/svg+xml</dc:format>
				<dc:type rdf:resource="http://purl.org/dc/dcmitype/StillImage"/>
				<dc:title/>
			</cc:Work>
		</rdf:RDF>
	</metadata>
	<g transform="translate(-64.502 -228.54)">
		<g transform="matrix(2.6136 0 0 2.6136 -89.06 -288.84)" fill="#fff">
			<path d="m59.64 198.31h-0.88559v-0.31336h2.1799v0.31336h-0.92647v2.8475h-0.36786z" opacity=".61093" style="mix-blend-mode:lighten"/>
			<path d="m63.387 198h1.9347v0.31336h-1.6077v1.0355h1.3352v0.32699h-1.3352v1.1717h1.5941v0.31336h-1.9211z" opacity=".61093" style="mix-blend-mode:lighten"/>
			<path d="m68.837 201.21q-0.6131 0-0.99459-0.40874l0.19074-0.31336 0.01363-0.0409 0.04087 0.0136q0 0.0136 0.01362 0.0545 0 0.0273 0.02725 0.0681 0.01362 0.0273 0.0545 0.0545 0.28611 0.24524 0.70847 0.24524 0.27249 0 0.46323-0.14987 0.19074-0.16349 0.19074-0.38148 0-0.14987-0.06812-0.25887-0.0545-0.0954-0.20437-0.19074-0.14987-0.0954-0.46323-0.23162-0.46323-0.17712-0.6676-0.40873-0.19074-0.23162-0.19074-0.51773 0-0.35424 0.25887-0.57223 0.25886-0.218 0.69485-0.218 0.25887 0 0.49048 0.109 0.21799 0.109 0.39511 0.28611l-0.23162 0.31337-0.02725-0.0272q0-0.0136-0.01362-0.0409 0-0.0409-0.02725-0.0681-0.01363-0.0409-0.0545-0.0681-0.109-0.109-0.25887-0.16349-0.13624-0.0409-0.32699-0.0409-0.24524 0-0.38149 0.13625-0.14987 0.13624-0.14987 0.32699 0 0.14987 0.0545 0.25886 0.06812 0.109 0.23162 0.20437 0.16349 0.109 0.49048 0.23162 0.44961 0.19074 0.62673 0.38148 0.16349 0.20437 0.16349 0.50411 0 0.23161-0.109 0.43598-0.12262 0.20437-0.35424 0.34061-0.24524 0.13625-0.58585 0.13625z" opacity=".61093" style="mix-blend-mode:lighten"/>
			<path d="m73.128 198.31h-0.88559v-0.31336h2.1799v0.31336h-0.92647v2.8475h-0.36786z" opacity=".61093" style="mix-blend-mode:lighten"/>
			<path d="m76.875 198h1.9347v0.31336h-1.6077v1.0355h1.3352v0.32699h-1.3352v1.1717h1.5941v0.31336h-1.9211z" opacity=".61093" style="mix-blend-mode:lighten"/>
			<path transform="scale(.26458)" d="m307.49 748.33v11.947h1.3379v-5.252h2.3184l2.6777 5.252h1.4922l-2.7812-5.3047c0.72092-0.20598 1.3057-0.6184 1.752-1.2363 0.44628-0.61793 0.66992-1.2685 0.66992-1.9551 0-1.0985-0.32626-1.9398-0.97852-2.5234-0.61793-0.61793-1.6151-0.92774-2.9883-0.92774zm1.3379 1.2871h2.3184c0.82391 0 1.4416 0.18879 1.8535 0.56641 0.37762 0.41194 0.5664 0.94539 0.5664 1.5977 0 0.65224-0.18878 1.1489-0.5664 1.4922-0.41196 0.37763-1.0296 0.56641-1.8535 0.56641h-2.3184z" opacity=".61093" style="mix-blend-mode:lighten"/>
			<path d="m85.772 198h0.28612l0.7766 1.5532 0.79022-1.5532h0.27249v3.1609h-0.34061v-2.3843l-0.68122 1.2807h-0.13624l-0.64035-1.2671v2.3707h-0.32699z" opacity=".61093" style="mix-blend-mode:lighten"/>
			<path d="m90.363 198h1.9347v0.31336h-1.6077v1.0355h1.3352v0.32699h-1.3352v1.1717h1.5941v0.31336h-1.9211z" opacity=".61093" style="mix-blend-mode:lighten"/>
			<path d="m94.9 198h0.40874v0.0409q-0.02725 0.0272-0.04087 0.0681 0 0.0273 0 0.12262v2.6295h1.5123v0.29974h-1.8802z" opacity=".61093" style="mix-blend-mode:lighten"/>
			<path transform="scale(.26458)" d="m379.17 748.28c-1.3388 0-2.3873 0.53149-3.1426 1.5957-0.75525 1.0986-1.1328 2.5924-1.1328 4.4805 0 1.9568 0.37756 3.467 1.1328 4.5312 0.72092 1.0642 1.7694 1.5957 3.1426 1.5957 1.3732 0 2.4197-0.53149 3.1406-1.5957 0.75525-1.0642 1.1328-2.5745 1.1328-4.5312 0-1.8881-0.37757-3.3819-1.1328-4.4805-0.75525-1.0642-1.8018-1.5957-3.1406-1.5957zm0 1.1836c0.89257 0 1.5964 0.42888 2.1113 1.2871 0.51492 0.89257 0.77148 2.095 0.77148 3.6055 0 1.6135-0.25656 2.8488-0.77148 3.707-0.48063 0.82391-1.1844 1.2363-2.1113 1.2363-0.92689-1e-5 -1.6491-0.41242-2.1641-1.2363-0.48062-0.85823-0.72071-2.0935-0.72071-3.707 0-1.5105 0.2585-2.7129 0.77344-3.6055 0.51494-0.85823 1.2188-1.2871 2.1113-1.2871z" opacity=".61093" style="mix-blend-mode:lighten"/>
			<path d="m103.81 198h0.34061l1.3216 2.3434v-2.3434h0.39511v0.0409q-0.0409 0.0272-0.0409 0.0681-0.0136 0.0273-0.0136 0.12262v2.9293h-0.27249l-1.4033-2.4797v2.4797h-0.32699z" opacity=".61093" style="mix-blend-mode:lighten"/>
		</g>
	</g>
</svg>
