<?xml version="1.0" standalone="no"?>
<!DOCTYPE svg PUBLIC "-//W3C//DTD SVG 20010904//EN"
 "http://www.w3.org/TR/2001/REC-SVG-20010904/DTD/svg10.dtd">
<svg version="1.0" xmlns="http://www.w3.org/2000/svg"
 width="990.000000pt" height="990.000000pt" viewBox="0 0 990.000000 990.000000"
 preserveAspectRatio="xMidYMid meet">
<metadata>
Created by potrace 1.11, written by Peter Selinger 2001-2013
</metadata>
<g transform="translate(0.000000,990.000000) scale(0.100000,-0.100000)"
fill="#000000" stroke="none">
<path d="M2517 9895 c-1 -1 -40 -5 -87 -9 -47 -3 -94 -8 -105 -10 -11 -2 -42
-7 -70 -10 -27 -4 -57 -9 -65 -11 -8 -2 -32 -6 -52 -9 -21 -3 -92 -20 -159
-37 -373 -94 -736 -270 -1028 -497 -108 -84 -307 -281 -396 -392 -186 -230
-334 -512 -430 -817 -13 -43 -27 -93 -30 -112 -3 -19 -8 -37 -10 -41 -9 -15
-54 -277 -63 -370 -10 -105 -9 -4525 1 -4634 5 -49 10 -96 12 -105 1 -9 6 -42
10 -75 3 -32 8 -68 10 -80 9 -52 28 -163 31 -187 2 -15 15 -75 30 -135 14 -60
27 -116 29 -124 5 -24 33 -114 81 -259 150 -452 390 -852 694 -1159 95 -97
235 -220 300 -265 177 -122 261 -173 395 -240 193 -97 468 -195 623 -223 14
-3 28 -7 32 -9 9 -6 235 -45 295 -51 28 -3 57 -7 65 -9 53 -15 309 -20 1000
-19 1183 2 3767 15 3835 19 130 8 239 16 245 19 3 2 34 7 70 10 36 4 74 9 85
11 11 3 36 7 55 10 46 6 85 14 140 26 25 6 56 13 70 15 14 3 81 21 150 41 661
191 1118 587 1376 1195 57 135 142 418 167 558 8 42 16 93 22 130 2 19 7 46 9
60 6 31 14 98 21 175 3 33 8 78 11 100 6 47 4 4294 -2 4440 -2 55 -6 129 -9
165 -12 145 -21 246 -30 320 -2 19 -7 55 -10 80 -3 25 -7 56 -10 70 -3 14 -7
45 -10 70 -3 25 -12 77 -19 115 -8 39 -17 87 -20 109 -25 161 -138 537 -220
729 -143 333 -343 621 -565 815 -121 105 -127 109 -229 178 -285 190 -680 332
-1072 384 -47 6 -96 13 -110 15 -14 2 -61 7 -105 11 -44 4 -93 9 -110 11 -28
4 -4842 12 -4848 8z"/>
</g>
</svg>
